<svg width="468" height="392" viewBox="0 0 468 392" fill="none" xmlns="http://www.w3.org/2000/svg">
<g clip-path="url(#clip0_246_51)">
<path d="M412.51 23.8127H0.646837C0.473978 23.8089 0.309495 23.7375 0.188599 23.6139C0.0677026 23.4903 0 23.3242 0 23.1513C0 22.9783 0.0677026 22.8123 0.188599 22.6886C0.309495 22.565 0.473978 22.4936 0.646837 22.4898H412.51C412.683 22.4936 412.847 22.565 412.968 22.6886C413.089 22.8123 413.157 22.9783 413.157 23.1513C413.157 23.3242 413.089 23.4903 412.968 23.6139C412.847 23.7375 412.683 23.8089 412.51 23.8127Z" fill="#CACACA"/>
<path d="M15.2061 14.5522C19.1362 14.5522 22.3223 11.2946 22.3223 7.27612C22.3223 3.25763 19.1362 0 15.2061 0C11.2759 0 8.08984 3.25763 8.08984 7.27612C8.08984 11.2946 11.2759 14.5522 15.2061 14.5522Z" fill="#3F3D56"/>
<path d="M39.792 14.5522C43.7222 14.5522 46.9082 11.2946 46.9082 7.27612C46.9082 3.25763 43.7222 0 39.792 0C35.8618 0 32.6758 3.25763 32.6758 7.27612C32.6758 11.2946 35.8618 14.5522 39.792 14.5522Z" fill="#3F3D56"/>
<path d="M64.374 14.5522C68.3042 14.5522 71.4902 11.2946 71.4902 7.27612C71.4902 3.25763 68.3042 0 64.374 0C60.4438 0 57.2578 3.25763 57.2578 7.27612C57.2578 11.2946 60.4438 14.5522 64.374 14.5522Z" fill="#3F3D56"/>
<path d="M397.778 1.80347H380.316C379.97 1.81034 379.64 1.95269 379.398 2.19996C379.155 2.44722 379.02 2.77968 379.02 3.12595C379.02 3.47221 379.155 3.80467 379.398 4.05193C379.64 4.2992 379.97 4.44155 380.316 4.44842H397.778C398.125 4.44155 398.454 4.2992 398.697 4.05193C398.939 3.80467 399.075 3.47221 399.075 3.12595C399.075 2.77968 398.939 2.44722 398.697 2.19996C398.454 1.95269 398.125 1.81034 397.778 1.80347Z" fill="#3F3D56"/>
<path d="M397.778 6.76764H380.316C379.97 6.77451 379.64 6.91687 379.398 7.16413C379.155 7.41139 379.02 7.74386 379.02 8.09013C379.02 8.43639 379.155 8.76885 379.398 9.01612C379.64 9.26338 379.97 9.40573 380.316 9.41261H397.778C398.125 9.40573 398.454 9.26338 398.697 9.01612C398.939 8.76885 399.075 8.43639 399.075 8.09013C399.075 7.74386 398.939 7.41139 398.697 7.16413C398.454 6.91687 398.125 6.77451 397.778 6.76764Z" fill="#3F3D56"/>
<path d="M397.778 11.7253H380.316C379.97 11.7322 379.64 11.8745 379.398 12.1218C379.155 12.369 379.02 12.7015 379.02 13.0478C379.02 13.394 379.155 13.7265 379.398 13.9737C379.64 14.221 379.97 14.3634 380.316 14.3702H397.778C398.125 14.3634 398.454 14.221 398.697 13.9737C398.939 13.7265 399.075 13.394 399.075 13.0478C399.075 12.7015 398.939 12.369 398.697 12.1218C398.454 11.8745 398.125 11.7322 397.778 11.7253Z" fill="#3F3D56"/>
<path d="M391.259 46.1473H16.1209C14.0437 46.1504 12.0524 46.9771 10.5836 48.4462C9.11479 49.9153 8.28826 51.9069 8.28516 53.9845V55.2483C8.28826 57.3259 9.11479 59.3175 10.5836 60.7866C12.0524 62.2557 14.0437 63.0824 16.1209 63.0855H391.259C393.336 63.0824 395.327 62.2557 396.796 60.7866C398.265 59.3175 399.091 57.3259 399.094 55.2483V53.9845C399.091 51.9069 398.265 49.9153 396.796 48.4462C395.327 46.9771 393.336 46.1504 391.259 46.1473Z" fill="#F0F0F0"/>
<path d="M61.3917 57.7436H25.6828C24.8839 57.7424 24.118 57.4242 23.5535 56.8587C22.9889 56.2932 22.6719 55.5268 22.6719 54.7277C22.6719 53.9286 22.9889 53.1621 23.5535 52.5966C24.118 52.0312 24.8839 51.7129 25.6828 51.7117H61.3917C65.2804 51.6574 65.3193 57.7984 61.3917 57.7436Z" fill="white"/>
<path d="M168.212 57.7436H132.503C131.704 57.7424 130.938 57.4242 130.374 56.8587C129.809 56.2932 129.492 55.5268 129.492 54.7277C129.492 53.9286 129.809 53.1621 130.374 52.5966C130.938 52.0312 131.704 51.7129 132.503 51.7117H168.212C172.101 51.6574 172.14 57.7984 168.212 57.7436Z" fill="white"/>
<path d="M275.036 57.7436H239.327C238.528 57.7424 237.763 57.4242 237.198 56.8587C236.633 56.2932 236.316 55.5268 236.316 54.7277C236.316 53.9286 236.633 53.1621 237.198 52.5966C237.763 52.0312 238.528 51.7129 239.327 51.7117H275.036C278.925 51.6574 278.964 57.7984 275.036 57.7436Z" fill="white"/>
<path d="M376.318 58.0694H340.609C339.809 58.0694 339.042 57.7516 338.477 57.186C337.911 56.6204 337.594 55.8533 337.594 55.0534C337.594 54.2535 337.911 53.4864 338.477 52.9208C339.042 52.3552 339.809 52.0375 340.609 52.0375H376.318C380.207 51.9832 380.246 58.1241 376.318 58.0694Z" fill="#8ECAE6"/>
<path d="M320.607 46.1473H319.305V63.0855H320.607V46.1473Z" fill="white"/>
<path d="M185.806 296.84H32.704C31.3399 296.839 30.032 296.296 29.0674 295.331C28.1028 294.366 27.5602 293.058 27.5586 291.694V269.267C27.5602 267.902 28.1028 266.594 29.0674 265.63C30.032 264.665 31.3399 264.122 32.704 264.12H185.806C187.17 264.122 188.478 264.665 189.442 265.63C190.407 266.594 190.949 267.902 190.951 269.267V291.694C190.949 293.058 190.407 294.366 189.442 295.331C188.478 296.296 187.17 296.839 185.806 296.84Z" fill="#F0F0F0"/>
<path d="M170.931 293.369H36.1767C34.8125 293.367 33.5047 292.825 32.5401 291.86C31.5754 290.895 31.0328 289.587 31.0312 288.223V272.741C31.0328 271.377 31.5754 270.068 32.5401 269.104C33.5047 268.139 34.8125 267.596 36.1767 267.595H182.336C183.7 267.596 185.008 268.139 185.973 269.104C186.937 270.068 187.48 271.377 187.481 272.741V276.815C187.477 281.204 185.731 285.412 182.629 288.515C179.526 291.618 175.319 293.364 170.931 293.369Z" fill="white"/>
<path d="M124.448 278.885H62.9129C62.561 278.885 62.2235 278.745 61.9746 278.496C61.7257 278.247 61.5859 277.91 61.5859 277.558C61.5859 277.206 61.7257 276.868 61.9746 276.619C62.2235 276.37 62.561 276.23 62.9129 276.23H124.448C124.8 276.23 125.138 276.37 125.386 276.619C125.635 276.868 125.775 277.206 125.775 277.558C125.775 277.91 125.635 278.247 125.386 278.496C125.138 278.745 124.8 278.885 124.448 278.885Z" fill="#E6E6E6"/>
<path d="M155.597 284.313H62.912C62.7375 284.314 62.5646 284.28 62.4033 284.213C62.2419 284.147 62.0953 284.049 61.9717 283.926C61.8482 283.802 61.7502 283.656 61.6833 283.495C61.6165 283.334 61.582 283.161 61.582 282.986C61.582 282.812 61.6165 282.639 61.6833 282.478C61.7502 282.316 61.8482 282.17 61.9717 282.047C62.0953 281.923 62.2419 281.826 62.4033 281.759C62.5646 281.693 62.7375 281.659 62.912 281.659H155.597C155.949 281.66 156.286 281.8 156.534 282.049C156.782 282.298 156.921 282.635 156.921 282.986C156.921 283.338 156.782 283.675 156.534 283.924C156.286 284.172 155.949 284.313 155.597 284.313Z" fill="#E6E6E6"/>
<path d="M195.588 238.461H21.0196C19.6267 238.459 18.2912 237.905 17.3062 236.92C16.3213 235.935 15.7672 234.599 15.7656 233.206V99.7411C15.7672 98.3479 16.3213 97.0122 17.3063 96.0271C18.2912 95.042 19.6267 94.4879 21.0196 94.4863H195.588C196.981 94.4879 198.316 95.042 199.301 96.0271C200.286 97.0122 200.84 98.3479 200.842 99.7411V233.206C200.84 234.599 200.286 235.935 199.301 236.92C198.316 237.905 196.981 238.459 195.588 238.461Z" fill="white"/>
<path d="M195.587 239.112H21.0187C19.453 239.11 17.952 238.487 16.845 237.38C15.7379 236.273 15.1151 234.772 15.1133 233.206V99.741C15.1151 98.1751 15.7379 96.6738 16.845 95.5666C17.9521 94.4594 19.4531 93.8366 21.0187 93.8348H195.587C197.152 93.8366 198.653 94.4594 199.76 95.5666C200.867 96.6738 201.49 98.1751 201.492 99.741V233.206C201.49 234.772 200.867 236.273 199.76 237.38C198.653 238.487 197.152 239.11 195.587 239.112ZM21.0187 95.1378C19.7984 95.1391 18.6286 95.6245 17.7657 96.4875C16.9028 97.3505 16.4174 98.5205 16.416 99.741V233.206C16.4173 234.426 16.9027 235.596 17.7656 236.459C18.6285 237.322 19.7984 237.808 21.0187 237.809H195.587C196.807 237.808 197.977 237.322 198.84 236.459C199.703 235.596 200.188 234.426 200.189 233.206V99.741C200.188 98.5205 199.702 97.3505 198.84 96.4875C197.977 95.6245 196.807 95.1391 195.587 95.1378L21.0187 95.1378Z" fill="#F0F0F0"/>
<path d="M16.168 213.053V233.206C16.1699 234.492 16.6816 235.725 17.5908 236.634C18.5001 237.544 19.7328 238.056 21.0187 238.057H195.587C196.873 238.056 198.106 237.544 199.015 236.634C199.924 235.725 200.436 234.492 200.438 233.206V213.053H16.168Z" fill="#F0F0F0"/>
<path d="M17.8117 95.3365L17.1094 96.4337L200.085 213.602L200.787 212.505L17.8117 95.3365Z" fill="#F0F0F0"/>
<path d="M200.601 95.3366L17.625 212.505L18.3273 213.602L201.303 96.4337L200.601 95.3366Z" fill="#F0F0F0"/>
<path d="M355.222 382.925L347.152 382.924L343.312 351.791L355.224 351.792L355.222 382.925Z" fill="#A0616A"/>
<path d="M355.006 380.287L346.395 376.789L346.141 376.684L341.386 380.287C338.777 380.287 336.268 381.294 334.384 383.099C332.499 384.904 331.384 387.367 331.271 389.974C331.258 390.118 331.258 390.268 331.258 390.417V390.75H357.279V380.287H355.006Z" fill="#2F2E41"/>
<path d="M336.324 375.413L328.711 378.092L314.758 349.998L325.994 346.045L336.324 375.413Z" fill="#A0616A"/>
<path d="M335.245 372.996L325.962 372.555L325.687 372.541L322.398 377.518C319.936 378.384 317.904 380.167 316.725 382.495C315.546 384.823 315.312 387.517 316.07 390.014C316.106 390.153 316.155 390.295 316.205 390.436L316.315 390.75L340.862 382.111L337.389 372.242L335.245 372.996Z" fill="#2F2E41"/>
<path d="M358.075 248.685C365.458 248.398 356.313 307.245 356.313 307.245C356.313 307.245 358.988 358.91 358.421 361.621C357.854 364.332 358.349 371.645 358.349 371.645C356.903 369.012 341.979 370.999 341.979 370.999L339.949 318.637L329.584 276.682L315.214 304.805L328.987 347.972C328.987 347.972 334.565 353.134 333.972 355.174C333.379 357.214 318.768 361.814 316.084 361.918C313.399 362.023 314.611 358.614 314.481 355.257C314.351 351.901 301.717 320.792 297.274 310.207C292.83 299.622 296.285 284.697 298.553 273.852C300.821 263.007 312.755 242.654 312.755 242.654C327.567 225.944 350.692 248.971 358.075 248.685Z" fill="#2F2E41"/>
<path d="M268.096 201.129C268.501 201.901 269.07 202.576 269.763 203.105C270.456 203.634 271.257 204.005 272.109 204.191C272.961 204.377 273.844 204.374 274.695 204.182C275.545 203.99 276.344 203.614 277.033 203.08L294.788 214.666L294.734 203.648L277.882 194.335C276.908 193.236 275.565 192.532 274.108 192.356C272.65 192.181 271.178 192.547 269.972 193.385C268.766 194.222 267.909 195.473 267.563 196.9C267.217 198.327 267.407 199.832 268.096 201.129Z" fill="#A0616A"/>
<path d="M354.238 258.118C335.928 258.119 325.838 254.453 320.48 251.18C313.929 247.178 312.808 242.957 312.763 242.779L312.75 242.728L313.388 234.702L313.667 234.077C314.952 231.2 315.122 227.948 314.145 224.952L314.125 224.89L314.13 224.826L318.411 169.292L333.561 164.328L337.969 159.899L357.592 159.614L360.326 165.158L375.797 170.984L368.196 216.232L364.553 222.513L366.019 229.356L366.009 229.417L361.229 257.952L360.966 257.963C358.609 258.069 356.366 258.12 354.238 258.118Z" fill="#3F3D56"/>
<path d="M306.87 223.472L299.687 219.213L299.237 218.563C298.323 217.247 297.112 216.163 295.704 215.4C294.295 214.637 292.727 214.214 291.125 214.167L291.041 214.164L281.148 208.347L285.249 196.331L300.758 200.914L311.57 174.044C312.164 172.569 313.155 171.287 314.434 170.341C315.713 169.395 317.229 168.823 318.814 168.687C320.398 168.552 321.989 168.858 323.41 169.574C324.831 170.289 326.025 171.384 326.861 172.737C327.717 174.152 328.161 175.778 328.142 177.431V195.012L328.077 195.1L306.87 223.472Z" fill="#3F3D56"/>
<path d="M354.894 247.784C355.047 246.926 355.387 246.111 355.89 245.398C356.392 244.685 357.045 244.091 357.801 243.657C358.558 243.224 359.401 242.962 360.27 242.889C361.139 242.817 362.013 242.936 362.831 243.238L376.286 226.852L379.544 237.377L366.268 251.324C365.669 252.665 364.6 253.74 363.262 254.345C361.924 254.95 360.411 255.043 359.009 254.607C357.607 254.171 356.414 253.235 355.655 251.978C354.897 250.72 354.626 249.228 354.894 247.784Z" fill="#A0616A"/>
<path d="M375.012 245.714L366.078 236.777L371.765 222.917L380.007 211.661C371.224 207.385 364.632 197.254 359.855 188.867L359.801 188.773L360.99 179.455C361.269 177.275 362.141 175.215 363.513 173.498C364.706 172.006 366.239 170.821 367.984 170.043C369.728 169.264 371.634 168.915 373.541 169.024C375.448 169.133 377.302 169.697 378.947 170.669C380.591 171.641 381.979 172.993 382.994 174.612L399.012 210.227L398.832 210.496L385.948 232.462L382.432 234.743L375.012 245.714Z" fill="#3F3D56"/>
<path d="M361.872 140.934C361.283 145.228 359.014 149.113 355.563 151.735C352.112 154.356 347.761 155.501 343.467 154.916C339.173 154.331 335.287 152.066 332.661 148.617C330.036 145.168 328.888 140.818 329.467 136.523L329.499 136.29C330.176 132.052 332.492 128.25 335.947 125.705C339.402 123.159 343.719 122.074 347.967 122.683C352.215 123.293 356.053 125.547 358.653 128.962C361.254 132.376 362.408 136.675 361.867 140.933L361.872 140.934Z" fill="#A0616A"/>
<path d="M357.71 149.358C358.55 147.652 359.413 145.82 359.177 143.933C358.941 142.046 357.091 140.243 355.274 140.803C354.187 141.139 353.366 142.212 352.231 142.267C350.668 142.342 349.773 140.554 349.286 139.066L347.305 133.01C345.403 134.493 343.197 135.537 340.845 136.069C338.493 136.6 336.053 136.606 333.698 136.086C331.859 135.665 330.001 134.845 328.922 133.297C327.843 131.749 327.85 129.348 329.33 128.178C330.055 127.604 331.021 127.386 331.714 126.773C332.144 126.393 332.441 125.885 332.559 125.323C332.678 124.762 332.613 124.177 332.374 123.655C332.135 123.134 331.734 122.703 331.231 122.427C330.728 122.151 330.149 122.044 329.58 122.123L334.568 121.499L333.082 118.811C333.647 119.196 334.286 119.458 334.958 119.581C335.63 119.705 336.32 119.686 336.985 119.527C338.326 119.286 339.59 118.733 340.903 118.365C344.084 117.552 347.444 117.8 350.472 119.072C353.5 120.343 356.03 122.569 357.678 125.41C358.905 125 360.228 124.973 361.471 125.332C362.714 125.691 363.819 126.419 364.639 127.42C365.974 129.115 366.337 131.377 366.389 133.534C366.486 137.787 365.559 142.001 363.685 145.821C363.148 147.034 362.376 148.129 361.414 149.043C360.93 149.496 360.353 149.837 359.722 150.043C359.092 150.25 358.424 150.315 357.766 150.236" fill="#2F2E41"/>
<path d="M92.7337 132.53C93.0005 136.339 94.1225 140.039 96.0162 143.355C100.007 150.365 106.851 155.441 114.223 158.458C123.432 162.227 133.698 162.343 143.471 161.503C152.549 160.722 161.534 158.913 170.646 158.54C177.692 158.314 184.745 158.483 191.772 159.044C205.406 160.012 218.983 161.808 232.473 163.985C236.126 164.567 239.772 165.193 243.41 165.862C243.754 165.892 244.094 165.955 244.425 166.05C244.491 166.077 244.598 166.056 244.658 166.094C244.768 166.164 244.214 165.919 244.55 166.197C245.018 166.688 245.435 167.225 245.795 167.8L250.777 174.212C252.206 176.051 253.532 178.286 255.379 179.735C256.681 180.741 258.251 181.339 259.893 181.453C261.534 181.568 263.172 181.194 264.601 180.378C266.094 179.435 267.284 178.082 268.031 176.482C269.177 174.379 270.544 172.406 272.109 170.594C278.036 163.678 286.274 159.424 293.164 153.605C296.501 150.902 299.349 147.646 301.584 143.978C303.491 140.659 304.677 136.975 305.064 133.167C305.889 125.433 303.516 117.546 299.525 110.967C295.184 103.899 288.948 98.1898 281.526 94.489C273.187 90.24 263.96 88.1704 254.711 87.139C244.891 86.044 234.957 86.0474 225.089 86.1579C214.014 86.2812 202.96 86.7683 191.925 87.6192C180.876 88.4746 169.87 89.6905 158.908 91.2669C148.389 92.7795 137.742 94.3561 127.445 97.0325C118.349 99.3969 109.279 103.093 102.486 109.789C96.447 115.743 92.2466 123.89 92.7337 132.53Z" fill="#8ECAE6"/>
<path d="M143.581 134.99C143.131 134.97 142.691 134.857 142.287 134.658C141.883 134.459 141.525 134.179 141.235 133.835C140.944 133.49 140.729 133.09 140.601 132.658C140.473 132.227 140.436 131.773 140.492 131.326L140.726 129.486C140.77 129.133 140.728 128.775 140.604 128.441C140.479 128.108 140.276 127.81 140.011 127.573L138.629 126.338C138.176 125.933 137.845 125.41 137.675 124.828C137.504 124.245 137.499 123.627 137.661 123.042C137.824 122.457 138.146 121.929 138.593 121.518C139.04 121.107 139.592 120.83 140.189 120.716L142.011 120.37C142.36 120.304 142.688 120.154 142.966 119.933C143.244 119.711 143.465 119.426 143.608 119.1L144.356 117.402C144.601 116.847 144.996 116.371 145.497 116.028C145.998 115.686 146.585 115.491 147.191 115.464C147.798 115.438 148.399 115.582 148.928 115.88C149.457 116.177 149.891 116.617 150.183 117.149L151.075 118.775C151.246 119.087 151.49 119.353 151.787 119.55C152.084 119.747 152.424 119.868 152.778 119.904L154.622 120.09C155.226 120.151 155.801 120.38 156.281 120.751C156.762 121.122 157.129 121.62 157.342 122.188C157.554 122.757 157.603 123.373 157.483 123.968C157.363 124.563 157.08 125.113 156.664 125.555L155.393 126.906C155.15 127.165 154.972 127.479 154.877 127.822C154.782 128.164 154.772 128.525 154.847 128.873L155.239 130.687C155.367 131.28 155.327 131.897 155.123 132.468C154.919 133.04 154.559 133.543 154.084 133.92C153.609 134.298 153.038 134.535 152.436 134.605C151.833 134.675 151.223 134.575 150.674 134.316L148.997 133.526C148.675 133.374 148.321 133.302 147.966 133.317C147.61 133.332 147.264 133.434 146.957 133.614L145.354 134.547C144.817 134.861 144.202 135.015 143.581 134.99Z" fill="white"/>
<path d="M169.693 134.232C168.866 134.194 168.084 133.844 167.503 133.254C167.152 132.882 166.89 132.435 166.737 131.947C166.584 131.459 166.545 130.943 166.621 130.437L166.835 128.749C166.881 128.389 166.839 128.024 166.712 127.684C166.585 127.345 166.377 127.041 166.107 126.8L164.825 125.654C164.447 125.331 164.146 124.928 163.943 124.474C163.74 124.02 163.641 123.527 163.653 123.03C163.681 122.293 163.959 121.588 164.44 121.03C164.921 120.472 165.577 120.094 166.301 119.958L168.102 119.616C168.458 119.548 168.792 119.395 169.076 119.169C169.36 118.943 169.584 118.652 169.73 118.32L170.401 116.796C170.641 116.218 171.036 115.716 171.542 115.348C172.049 114.979 172.647 114.758 173.271 114.707C173.883 114.673 174.492 114.812 175.028 115.11C175.563 115.408 176.003 115.852 176.296 116.39L177.177 117.998C177.351 118.316 177.601 118.587 177.903 118.787C178.206 118.987 178.552 119.111 178.913 119.148L180.623 119.32C181.119 119.359 181.6 119.508 182.031 119.756C182.461 120.005 182.832 120.346 183.114 120.756C183.523 121.368 183.713 122.101 183.652 122.835C183.59 123.569 183.282 124.261 182.776 124.797L181.521 126.132C181.273 126.395 181.092 126.716 180.995 127.065C180.898 127.414 180.888 127.781 180.964 128.135L181.326 129.81C181.442 130.293 181.449 130.796 181.347 131.283C181.245 131.769 181.036 132.227 180.736 132.623C180.282 133.205 179.644 133.615 178.926 133.785C178.208 133.955 177.453 133.875 176.787 133.558L175.127 132.775C174.799 132.621 174.439 132.549 174.077 132.564C173.716 132.58 173.363 132.684 173.05 132.866L171.466 133.788C170.93 134.102 170.315 134.256 169.693 134.232Z" fill="white"/>
<path d="M195.878 134.121C195.428 134.101 194.988 133.988 194.584 133.789C194.18 133.59 193.822 133.31 193.531 132.965C193.241 132.621 193.025 132.221 192.898 131.789C192.77 131.357 192.733 130.904 192.789 130.457L193.022 128.617C193.067 128.264 193.025 127.905 192.901 127.572C192.776 127.239 192.573 126.941 192.307 126.703L190.925 125.468C190.473 125.064 190.142 124.541 189.971 123.958C189.801 123.376 189.796 122.757 189.958 122.173C190.121 121.588 190.443 121.06 190.89 120.649C191.337 120.238 191.889 119.96 192.485 119.847L194.307 119.501C194.657 119.435 194.985 119.284 195.263 119.063C195.541 118.842 195.762 118.556 195.905 118.231L196.653 116.533C196.898 115.977 197.293 115.502 197.794 115.159C198.295 114.817 198.882 114.621 199.488 114.595C200.094 114.569 200.696 114.713 201.225 115.01C201.753 115.308 202.188 115.748 202.48 116.28L203.372 117.906C203.543 118.218 203.787 118.484 204.084 118.681C204.381 118.877 204.721 118.999 205.075 119.035L206.919 119.221C207.523 119.282 208.098 119.511 208.578 119.882C209.059 120.252 209.426 120.75 209.638 121.319C209.851 121.887 209.9 122.504 209.78 123.099C209.66 123.694 209.376 124.244 208.961 124.686L207.69 126.037C207.446 126.295 207.269 126.61 207.174 126.952C207.079 127.295 207.069 127.656 207.144 128.003L207.536 129.817C207.664 130.41 207.624 131.028 207.42 131.599C207.216 132.17 206.856 132.673 206.381 133.051C205.906 133.429 205.335 133.666 204.733 133.736C204.13 133.806 203.52 133.706 202.971 133.447L201.294 132.657C200.972 132.504 200.618 132.433 200.263 132.448C199.907 132.463 199.561 132.565 199.253 132.744L197.651 133.678C197.114 133.992 196.499 134.146 195.878 134.121Z" fill="white"/>
<path opacity="0.2" d="M221.347 133.43C220.897 133.41 220.456 133.297 220.052 133.098C219.649 132.899 219.29 132.618 219 132.274C218.71 131.93 218.494 131.529 218.366 131.098C218.239 130.666 218.202 130.213 218.257 129.766L218.491 127.926C218.536 127.573 218.494 127.214 218.37 126.881C218.245 126.548 218.041 126.249 217.776 126.012L216.394 124.777C215.942 124.373 215.611 123.85 215.44 123.267C215.269 122.685 215.265 122.066 215.427 121.482C215.589 120.897 215.912 120.369 216.359 119.958C216.805 119.547 217.358 119.269 217.954 119.156L219.776 118.81C220.125 118.744 220.453 118.593 220.732 118.372C221.01 118.151 221.23 117.865 221.374 117.54L222.122 115.841C222.367 115.286 222.762 114.81 223.263 114.468C223.764 114.126 224.351 113.93 224.957 113.904C225.563 113.878 226.165 114.022 226.693 114.319C227.222 114.617 227.657 115.057 227.949 115.589L228.841 117.215C229.012 117.527 229.256 117.793 229.553 117.99C229.849 118.186 230.189 118.308 230.544 118.344L232.388 118.53C232.992 118.591 233.566 118.82 234.047 119.191C234.528 119.561 234.895 120.059 235.107 120.628C235.32 121.196 235.369 121.813 235.249 122.408C235.129 123.003 234.845 123.553 234.429 123.995L233.159 125.346C232.915 125.604 232.738 125.919 232.643 126.261C232.548 126.604 232.537 126.965 232.613 127.312L233.005 129.126C233.133 129.719 233.093 130.336 232.889 130.908C232.685 131.479 232.325 131.982 231.85 132.36C231.375 132.738 230.804 132.975 230.201 133.045C229.599 133.115 228.988 133.015 228.44 132.756L226.762 131.965C226.441 131.813 226.087 131.741 225.731 131.757C225.376 131.772 225.029 131.874 224.722 132.053L223.119 132.987C222.583 133.301 221.968 133.454 221.347 133.43Z" fill="black"/>
<path opacity="0.2" d="M246.815 132.739C246.366 132.719 245.925 132.606 245.521 132.407C245.117 132.208 244.759 131.927 244.469 131.583C244.179 131.239 243.963 130.838 243.835 130.407C243.707 129.975 243.67 129.522 243.726 129.075L243.96 127.235C244.005 126.882 243.963 126.523 243.838 126.19C243.714 125.856 243.51 125.558 243.245 125.321L241.863 124.086C241.41 123.682 241.08 123.159 240.909 122.576C240.738 121.994 240.733 121.375 240.896 120.79C241.058 120.206 241.381 119.678 241.827 119.267C242.274 118.856 242.827 118.578 243.423 118.465L245.245 118.119C245.594 118.052 245.922 117.902 246.2 117.681C246.479 117.46 246.699 117.174 246.843 116.849L247.591 115.15C247.835 114.595 248.231 114.119 248.732 113.777C249.233 113.435 249.819 113.239 250.426 113.213C251.032 113.187 251.633 113.331 252.162 113.628C252.691 113.926 253.126 114.366 253.418 114.898L254.309 116.524C254.48 116.836 254.725 117.102 255.021 117.299C255.318 117.495 255.658 117.617 256.012 117.653L257.857 117.839C258.461 117.9 259.035 118.129 259.516 118.5C259.996 118.87 260.364 119.368 260.576 119.937C260.788 120.505 260.837 121.122 260.718 121.717C260.598 122.312 260.314 122.862 259.898 123.304L258.628 124.655C258.384 124.913 258.207 125.228 258.112 125.57C258.016 125.913 258.006 126.274 258.082 126.621L258.474 128.435C258.602 129.028 258.562 129.645 258.358 130.217C258.153 130.788 257.794 131.291 257.319 131.669C256.844 132.047 256.273 132.284 255.67 132.354C255.067 132.424 254.457 132.324 253.908 132.065L252.231 131.274C251.909 131.122 251.556 131.05 251.2 131.066C250.845 131.081 250.498 131.183 250.191 131.362L248.588 132.296C248.052 132.61 247.436 132.763 246.815 132.739Z" fill="black"/>
<path d="M409.074 350.079L409.819 333.323C417.586 329.171 426.249 326.978 435.055 326.934C422.935 336.845 424.449 355.951 416.232 369.279C413.637 373.416 410.145 376.917 406.013 379.521C401.882 382.124 397.218 383.765 392.367 384.321L382.224 390.532C380.832 382.772 381.139 374.802 383.123 367.172C385.108 359.541 388.722 352.432 393.718 346.333C396.555 342.94 399.807 339.917 403.399 337.337C405.828 343.743 409.074 350.079 409.074 350.079Z" fill="#F2F2F2"/>
<path d="M467.223 392H195.361C195.156 392 194.959 391.918 194.813 391.773C194.668 391.627 194.586 391.43 194.586 391.224C194.586 391.019 194.668 390.821 194.813 390.676C194.959 390.53 195.156 390.449 195.361 390.449H467.223C467.428 390.449 467.626 390.53 467.771 390.676C467.917 390.821 467.998 391.019 467.998 391.224C467.998 391.43 467.917 391.627 467.771 391.773C467.626 391.918 467.428 392 467.223 392Z" fill="#CACACA"/>
</g>
<defs>
<clipPath id="clip0_246_51">
<rect width="468" height="392" fill="white"/>
</clipPath>
</defs>
</svg>
