<svg width="220" height="132" viewBox="0 0 220 132" fill="none" xmlns="http://www.w3.org/2000/svg">
<g opacity="0.4" clip-path="url(#clip0_441_247)">
<path d="M219.999 103.008C220.003 103.892 219.655 104.741 219.031 105.37C218.407 105.998 217.558 106.354 216.671 106.358H70.269C69.8297 106.356 69.3952 106.268 68.9902 106.098C68.5853 105.928 68.2178 105.681 67.9089 105.37C67.5999 105.059 67.3554 104.69 67.1894 104.285C67.0234 103.879 66.9392 103.445 66.9415 103.008V3.3508C66.9368 2.46673 67.2848 1.61704 67.9088 0.988648C68.5328 0.360252 69.3817 0.00462326 70.2689 0H216.671C217.11 0.002277 217.545 0.0907526 217.95 0.260374C218.355 0.429995 218.722 0.67744 219.031 0.988581C219.34 1.29972 219.585 1.66847 219.751 2.07376C219.917 2.47906 220.001 2.91296 219.999 3.35071V103.008Z" fill="#0D0D0F"/>
<path d="M218.272 101.375C218.272 102.235 217.93 103.059 217.32 103.666C216.71 104.274 215.883 104.615 215.021 104.615H72.0207C71.1585 104.615 70.3315 104.274 69.7218 103.666C69.1121 103.059 68.7695 102.235 68.7695 101.375V5.02805C68.7695 4.16876 69.1121 3.34466 69.7218 2.73705C70.3315 2.12944 71.1585 1.78809 72.0207 1.78809H215.028C215.889 1.78981 216.714 2.13193 217.322 2.73935C217.931 3.34678 218.272 4.16989 218.272 5.02805V101.375Z" fill="#FDFBEF"/>
<path d="M76.4142 5.97168H210.784C211.296 5.97168 211.787 6.17429 212.148 6.53495C212.51 6.8956 212.714 7.38476 212.714 7.8948V98.1359C212.714 98.6459 212.51 99.1351 212.148 99.4958C211.787 99.8564 211.296 100.059 210.784 100.059H76.4142C75.9024 100.059 75.4115 99.8564 75.0496 99.4958C74.6877 99.1351 74.4844 98.6459 74.4844 98.1359V7.8948C74.4844 7.38476 74.6877 6.8956 75.0496 6.53495C75.4115 6.17429 75.9024 5.97168 76.4142 5.97168Z" fill="#0D0D0F"/>
<path d="M78.1134 8.13574H208.935C209.447 8.13574 209.938 8.33836 210.3 8.69901C210.662 9.05967 210.865 9.54882 210.865 10.0589V95.4846C210.865 95.9946 210.662 96.4838 210.3 96.8444C209.938 97.2051 209.447 97.4077 208.935 97.4077H78.1134C77.6016 97.4077 77.1107 97.2051 76.7488 96.8444C76.3869 96.4838 76.1836 95.9946 76.1836 95.4846V10.0589C76.1836 9.54882 76.3869 9.05967 76.7488 8.69901C77.1107 8.33836 77.6016 8.13574 78.1134 8.13574Z" fill="#FDFBEF"/>
<path d="M170.484 67.4794C169.969 67.4791 169.46 67.371 168.99 67.1621C168.88 67.1137 168.776 67.0546 168.678 66.9857L159.17 60.3164C158.688 59.9781 158.295 59.5293 158.023 59.0078C157.751 58.4862 157.61 57.9073 157.609 57.3196V48.224C157.61 47.6364 157.751 47.0574 158.023 46.5359C158.295 46.0144 158.688 45.5656 159.17 45.2273L168.678 38.558C168.776 38.4891 168.88 38.43 168.99 38.3816C169.55 38.1334 170.163 38.0287 170.774 38.0768C171.385 38.125 171.974 38.3246 172.488 38.6573C173.002 38.9901 173.424 39.4456 173.717 39.9824C174.009 40.5192 174.162 41.1203 174.162 41.7311V63.8126C174.162 64.7848 173.775 65.7172 173.085 66.4046C172.395 67.0921 171.459 67.4783 170.484 67.4783L170.484 67.4794Z" fill="#3F3D56"/>
<path d="M149.204 69.2679H122.687C117.277 69.2635 112.892 65.7785 112.887 61.4783V44.066C112.892 39.7658 117.277 36.2808 122.687 36.2764H149.273C154.644 36.2814 158.997 39.7414 159.004 44.0111V61.4783C158.998 65.7785 154.614 69.2635 149.204 69.2679Z" fill="#3F3D56"/>
<path d="M196.441 91.9147C200.797 91.9147 204.328 88.396 204.328 84.0555C204.328 79.715 200.797 76.1963 196.441 76.1963C192.086 76.1963 188.555 79.715 188.555 84.0555C188.555 88.396 192.086 91.9147 196.441 91.9147Z" fill="#0D0D0F"/>
<path d="M200.539 83.9141L194.253 80.2972C194.228 80.2829 194.2 80.2754 194.171 80.2754C194.142 80.2754 194.114 80.2829 194.089 80.2972C194.065 80.3115 194.044 80.332 194.03 80.3567C194.015 80.3815 194.008 80.4095 194.008 80.4381V87.6718C194.008 87.7004 194.015 87.7285 194.03 87.7532C194.044 87.7779 194.065 87.7985 194.089 87.8127C194.114 87.827 194.142 87.8345 194.171 87.8345C194.2 87.8345 194.228 87.827 194.253 87.8127L200.539 84.1958C200.564 84.1816 200.584 84.161 200.599 84.1363C200.613 84.1116 200.621 84.0835 200.621 84.055C200.621 84.0264 200.613 83.9983 200.599 83.9736C200.584 83.9489 200.564 83.9284 200.539 83.9141L194.253 80.2972C194.228 80.2829 194.2 80.2754 194.171 80.2754C194.142 80.2754 194.114 80.2829 194.089 80.2972C194.065 80.3115 194.044 80.332 194.03 80.3567C194.015 80.3815 194.008 80.4095 194.008 80.4381V87.6718C194.008 87.7004 194.015 87.7285 194.03 87.7532C194.044 87.7779 194.065 87.7985 194.089 87.8127C194.114 87.827 194.142 87.8345 194.171 87.8345C194.2 87.8345 194.228 87.827 194.253 87.8127L200.539 84.1958C200.564 84.1816 200.584 84.161 200.599 84.1363C200.613 84.1116 200.621 84.0835 200.621 84.055C200.621 84.0264 200.613 83.9983 200.599 83.9736C200.584 83.9489 200.564 83.9284 200.539 83.9141Z" fill="#FDFBEF"/>
<path d="M186.202 114.959C186.206 115.843 185.858 116.693 185.234 117.321C184.61 117.949 183.761 118.305 182.874 118.31H36.4721C36.0328 118.307 35.5983 118.219 35.1934 118.049C34.7884 117.88 34.421 117.632 34.112 117.321C33.803 117.01 33.5585 116.641 33.3925 116.236C33.2265 115.83 33.1423 115.397 33.1446 114.959V15.302C33.1399 14.4179 33.4879 13.5682 34.1119 12.9398C34.7359 12.3114 35.5849 11.9558 36.472 11.9512H182.874C183.313 11.9534 183.748 12.0419 184.153 12.2115C184.558 12.3812 184.925 12.6286 185.234 12.9398C185.543 13.2509 185.788 13.6196 185.954 14.0249C186.12 14.4302 186.204 14.8641 186.202 15.3019V114.959Z" fill="#0D0D0F"/>
<path d="M184.475 113.327C184.475 114.187 184.133 115.011 183.523 115.618C182.913 116.226 182.087 116.567 181.224 116.567H38.2239C37.3616 116.567 36.5346 116.226 35.9249 115.618C35.3152 115.011 34.9727 114.187 34.9727 113.327V16.9802C34.9727 16.1209 35.3152 15.2968 35.9249 14.6892C36.5346 14.0816 37.3616 13.7402 38.2239 13.7402H181.231C182.092 13.742 182.917 14.0841 183.525 14.6915C184.134 15.2989 184.475 16.122 184.475 16.9802V113.327Z" fill="#FDFBEF"/>
<path d="M42.6134 17.9229H176.983C177.495 17.9229 177.986 18.1255 178.348 18.4861C178.71 18.8468 178.913 19.3359 178.913 19.846V110.087C178.913 110.597 178.71 111.086 178.348 111.447C177.986 111.808 177.495 112.01 176.983 112.01H42.6134C42.1016 112.01 41.6107 111.808 41.2488 111.447C40.8869 111.086 40.6836 110.597 40.6836 110.087V19.846C40.6836 19.3359 40.8869 18.8468 41.2488 18.4861C41.6107 18.1255 42.1016 17.9229 42.6134 17.9229Z" fill="#0D0D0F"/>
<path d="M44.3165 20.0869H175.139C175.65 20.0869 176.141 20.2895 176.503 20.6502C176.865 21.0108 177.068 21.5 177.068 22.01V107.436C177.068 107.946 176.865 108.435 176.503 108.796C176.141 109.156 175.65 109.359 175.139 109.359H44.3165C43.8047 109.359 43.3138 109.156 42.9519 108.796C42.59 108.435 42.3867 107.946 42.3867 107.436V22.01C42.3867 21.5 42.59 21.0108 42.9519 20.6502C43.3138 20.2895 43.8047 20.0869 44.3165 20.0869Z" fill="#FDFBEF"/>
<path d="M136.683 79.4306C136.168 79.4302 135.659 79.3221 135.189 79.1133C135.079 79.0649 134.975 79.0058 134.877 78.9369L125.37 72.2675C124.887 71.9293 124.494 71.4805 124.222 70.9589C123.951 70.4374 123.809 69.8584 123.809 69.2708V60.1752C123.809 59.5876 123.951 59.0086 124.222 58.4871C124.494 57.9655 124.887 57.5167 125.37 57.1785L134.877 50.5091C134.975 50.4402 135.079 50.3811 135.189 50.3327C135.749 50.0846 136.362 49.9799 136.973 50.028C137.584 50.0762 138.173 50.2757 138.687 50.6085C139.201 50.9413 139.624 51.3968 139.916 51.9336C140.208 52.4704 140.362 53.0715 140.362 53.6823V75.7637C140.362 76.7359 139.974 77.6683 139.284 78.3558C138.594 79.0433 137.659 79.4295 136.683 79.4295L136.683 79.4306Z" fill="#3F3D56"/>
<path d="M115.407 81.2191H88.8897C83.4797 81.2147 79.0954 77.7297 79.0898 73.4294V56.0172C79.0954 51.7169 83.4797 48.232 88.8897 48.2275H115.476C120.847 48.2326 125.2 51.6926 125.207 55.9622V73.4294C125.201 77.7297 120.817 81.2147 115.407 81.2191Z" fill="#3F3D56"/>
<path d="M162.644 103.866C167 103.866 170.531 100.347 170.531 96.0067C170.531 91.6662 167 88.1475 162.644 88.1475C158.289 88.1475 154.758 91.6662 154.758 96.0067C154.758 100.347 158.289 103.866 162.644 103.866Z" fill="#0D0D0F"/>
<path d="M166.738 95.8662L160.452 92.2493C160.427 92.2351 160.399 92.2275 160.37 92.2275C160.342 92.2275 160.313 92.2351 160.289 92.2493C160.264 92.2636 160.243 92.2842 160.229 92.3089C160.215 92.3336 160.207 92.3617 160.207 92.3902V99.624C160.207 99.6526 160.215 99.6806 160.229 99.7053C160.243 99.7301 160.264 99.7506 160.289 99.7649C160.313 99.7792 160.342 99.7867 160.37 99.7867C160.399 99.7867 160.427 99.7792 160.452 99.7649L166.738 96.148C166.763 96.1337 166.784 96.1132 166.798 96.0885C166.812 96.0637 166.82 96.0357 166.82 96.0071C166.82 95.9786 166.812 95.9505 166.798 95.9258C166.784 95.9011 166.763 95.8805 166.738 95.8662L160.452 92.2493C160.427 92.2351 160.399 92.2275 160.37 92.2275C160.342 92.2275 160.313 92.2351 160.289 92.2493C160.264 92.2636 160.243 92.2842 160.229 92.3089C160.215 92.3336 160.207 92.3617 160.207 92.3902V99.624C160.207 99.6526 160.215 99.6806 160.229 99.7053C160.243 99.7301 160.264 99.7506 160.289 99.7649C160.313 99.7792 160.342 99.7867 160.37 99.7867C160.399 99.7867 160.427 99.7792 160.452 99.7649L166.738 96.148C166.763 96.1337 166.784 96.1132 166.798 96.0885C166.812 96.0637 166.82 96.0357 166.82 96.0071C166.82 95.9786 166.812 95.9505 166.798 95.9258C166.784 95.9011 166.763 95.8805 166.738 95.8662Z" fill="#FDFBEF"/>
<path d="M153.057 128.649C153.062 129.533 152.714 130.383 152.09 131.011C151.466 131.64 150.617 131.995 149.73 132H3.32756C2.8883 131.998 2.45379 131.909 2.04884 131.74C1.64389 131.57 1.27643 131.323 0.967443 131.011C0.658454 130.7 0.413987 130.332 0.248001 129.926C0.0820147 129.521 -0.0022401 129.087 4.57904e-05 128.649V28.9924C-0.00459288 28.1083 0.343367 27.2586 0.96738 26.6302C1.59139 26.0019 2.44034 25.6462 3.32747 25.6416H149.73C150.169 25.6439 150.603 25.7324 151.008 25.902C151.413 26.0716 151.781 26.319 152.09 26.6302C152.399 26.9413 152.643 27.3101 152.809 27.7154C152.975 28.1207 153.059 28.5546 153.057 28.9923V128.649Z" fill="#0D0D0F"/>
<path d="M151.331 127.017C151.331 127.876 150.988 128.7 150.379 129.308C149.769 129.916 148.942 130.257 148.08 130.257H5.07932C4.21705 130.257 3.3901 129.916 2.78038 129.308C2.17066 128.7 1.82813 127.876 1.82812 127.017V30.6697C1.82812 29.8104 2.17066 28.9863 2.78038 28.3787C3.3901 27.771 4.21705 27.4297 5.07932 27.4297H148.086C148.947 27.4314 149.773 27.7735 150.381 28.381C150.989 28.9884 151.331 29.8115 151.331 30.6697V127.017Z" fill="#FDFBEF"/>
<path d="M9.46885 31.6133H143.839C144.35 31.6133 144.841 31.8159 145.203 32.1765C145.565 32.5372 145.768 33.0264 145.768 33.5364V123.778C145.768 124.288 145.565 124.777 145.203 125.137C144.841 125.498 144.35 125.701 143.839 125.701H9.46885C8.95704 125.701 8.46619 125.498 8.10428 125.137C7.74238 124.777 7.53906 124.288 7.53906 123.778V33.5364C7.53906 33.0264 7.74238 32.5372 8.10428 32.1765C8.46619 31.8159 8.95704 31.6133 9.46885 31.6133Z" fill="#0D0D0F"/>
<path d="M11.172 33.7773H141.994C142.247 33.7773 142.498 33.8271 142.732 33.9237C142.967 34.0204 143.179 34.162 143.359 34.3406C143.538 34.5192 143.68 34.7312 143.777 34.9645C143.874 35.1978 143.924 35.4479 143.924 35.7005V121.126C143.924 121.379 143.874 121.629 143.777 121.862C143.68 122.095 143.538 122.307 143.359 122.486C143.179 122.665 142.967 122.806 142.732 122.903C142.498 123 142.247 123.049 141.994 123.049H11.172C10.6602 123.049 10.1693 122.847 9.80741 122.486C9.4455 122.125 9.24219 121.636 9.24219 121.126V35.7005C9.24219 35.1904 9.4455 34.7013 9.80741 34.3406C10.1693 33.98 10.6602 33.7773 11.172 33.7773Z" fill="#FDFBEF"/>
<path d="M103.539 93.121C103.024 93.1207 102.515 93.0126 102.044 92.8037C101.935 92.7553 101.83 92.6962 101.733 92.6273L92.2251 85.958C91.7429 85.6197 91.3494 85.1709 91.0778 84.6494C90.8061 84.1278 90.6642 83.5489 90.6641 82.9612V73.8656C90.6642 73.278 90.8061 72.699 91.0777 72.1775C91.3494 71.656 91.7429 71.2072 92.2251 70.8689L101.733 64.1996C101.83 64.1307 101.935 64.0716 102.044 64.0232C102.604 63.775 103.218 63.6703 103.829 63.7184C104.44 63.7666 105.029 63.9662 105.543 64.2989C106.057 64.6317 106.479 65.0872 106.771 65.624C107.064 66.1608 107.217 66.7619 107.217 67.3727V89.4542C107.217 90.4264 106.829 91.3588 106.14 92.0462C105.45 92.7337 104.514 93.1199 103.539 93.1199L103.539 93.121Z" fill="#F4A261"/>
<path d="M82.2623 94.9095H55.7451C50.3351 94.9051 45.9509 91.4201 45.9453 87.1199V69.7076C45.9509 65.4074 50.3352 61.9224 55.7451 61.918H82.3315C87.7029 61.923 92.0558 65.383 92.0621 69.6527V87.1199C92.0566 91.4201 87.6723 94.9051 82.2623 94.9095Z" fill="#F4A261"/>
<path d="M129.5 117.556C133.855 117.556 137.386 114.038 137.386 109.697C137.386 105.357 133.855 101.838 129.5 101.838C125.144 101.838 121.613 105.357 121.613 109.697C121.613 114.038 125.144 117.556 129.5 117.556Z" fill="#3F3D56"/>
<path d="M133.594 109.556L127.307 105.939C127.283 105.925 127.254 105.917 127.226 105.917C127.197 105.917 127.169 105.925 127.144 105.939C127.119 105.953 127.099 105.974 127.084 105.998C127.07 106.023 127.063 106.051 127.063 106.08V113.313C127.062 113.342 127.07 113.37 127.084 113.395C127.099 113.42 127.119 113.44 127.144 113.454C127.169 113.469 127.197 113.476 127.226 113.476C127.254 113.476 127.283 113.469 127.307 113.454L133.594 109.837C133.619 109.823 133.639 109.803 133.653 109.778C133.668 109.753 133.675 109.725 133.675 109.697C133.675 109.668 133.668 109.64 133.653 109.615C133.639 109.591 133.619 109.57 133.594 109.556L127.307 105.939C127.283 105.925 127.254 105.917 127.226 105.917C127.197 105.917 127.169 105.925 127.144 105.939C127.119 105.953 127.099 105.974 127.084 105.998C127.07 106.023 127.063 106.051 127.063 106.08V113.313C127.062 113.342 127.07 113.37 127.084 113.395C127.099 113.42 127.119 113.44 127.144 113.454C127.169 113.469 127.197 113.476 127.226 113.476C127.254 113.476 127.283 113.469 127.307 113.454L133.594 109.837C133.619 109.823 133.639 109.803 133.653 109.778C133.668 109.753 133.675 109.725 133.675 109.697C133.675 109.668 133.668 109.64 133.653 109.615C133.639 109.591 133.619 109.57 133.594 109.556Z" fill="#FDFBEF"/>
</g>
<defs>
<clipPath id="clip0_441_247">
<rect width="220" height="132" fill="white"/>
</clipPath>
</defs>
</svg>
