<svg width="1913" height="962" viewBox="0 0 1913 962" fill="none" xmlns="http://www.w3.org/2000/svg">
<path fill-rule="evenodd" clip-rule="evenodd" d="M0 60C0 26.8629 26.8629 0 60 0H417.842C425.996 0 433.798 3.31898 439.454 9.19295L480.667 52H1436.76L1483 8.21534C1488.57 2.93997 1495.95 0 1503.63 0H1853C1886.14 0 1913 26.8629 1913 60L1913 112L1913 221C1913 221.041 1913 221.082 1913 221.122V902C1913 935.137 1886.14 962 1853 962H59.9999C26.8629 962 0 935.137 0 902V221V82V60Z" fill="#E6E4D5"/>
</svg>
