<svg width="37" height="36" viewBox="0 0 37 36" fill="none" xmlns="http://www.w3.org/2000/svg">
<path d="M13.0406 1.18415C9.44363 2.43197 6.34162 4.80037 4.19019 7.94147C2.03876 11.0826 0.951312 14.8308 1.08758 18.6356C1.22385 22.4404 2.57665 26.1013 4.94727 29.0804C7.3179 32.0596 10.5814 34.2 14.2584 35.1873C17.2394 35.9565 20.3627 35.9903 23.3596 35.2857C26.0746 34.6759 28.5847 33.3714 30.644 31.5001C32.7874 29.4929 34.3431 26.9396 35.144 24.1145C36.0145 21.0423 36.1695 17.8115 35.5968 14.6701H18.8568V21.6141H28.5515C28.3578 22.7217 27.9426 23.7787 27.3308 24.7221C26.719 25.6654 25.9231 26.4756 24.9909 27.1042C23.8071 27.8872 22.4726 28.4141 21.0731 28.651C19.6695 28.912 18.2298 28.912 16.8262 28.651C15.4036 28.3569 14.0579 27.7697 12.8746 26.927C10.9738 25.5814 9.54655 23.6699 8.79652 21.4651C8.03382 19.219 8.03382 16.784 8.79652 14.5379C9.33041 12.9635 10.213 11.53 11.3784 10.3445C12.7121 8.96281 14.4005 7.9752 16.2585 7.48999C18.1165 7.00477 20.0723 7.0407 21.9112 7.59384C23.3477 8.03481 24.6614 8.80529 25.7475 9.84384C26.8406 8.75634 27.9318 7.66602 29.0212 6.5729C29.5837 5.98509 30.1968 5.4254 30.7509 4.82352C29.0931 3.2808 27.1472 2.08037 25.0246 1.29102C21.1594 -0.112442 16.9302 -0.150159 13.0406 1.18415Z" fill="white"/>
<path d="M13.0401 1.18405C16.9294 -0.151164 21.1586 -0.11444 25.0241 1.28811C27.1471 2.08282 29.0921 3.28903 30.7476 4.83749C30.1851 5.43936 29.5916 6.00186 29.0179 6.58686C27.9266 7.67624 26.8363 8.76186 25.747 9.84374C24.6609 8.80519 23.3472 8.03471 21.9107 7.59374C20.0724 7.03867 18.1167 7.00066 16.2582 7.48389C14.3997 7.96712 12.7102 8.95291 11.3751 10.3331C10.2097 11.5187 9.32709 12.9522 8.7932 14.5266L2.96289 10.0125C5.04979 5.87407 8.66312 2.70849 13.0401 1.18405Z" fill="#E33629"/>
<path d="M1.4171 14.4843C1.73047 12.9312 2.25074 11.4272 2.96398 10.0125L8.79429 14.5378C8.03158 16.7838 8.03158 19.2189 8.79429 21.465C6.85179 22.965 4.90835 24.4725 2.96398 25.9875C1.17846 22.4333 0.633912 18.3839 1.4171 14.4843Z" fill="#F8BD00"/>
<path d="M18.8567 14.6672H35.5967C36.1693 17.8086 36.0144 21.0394 35.1439 24.1116C34.343 26.9367 32.7873 29.4901 30.6439 31.4972C28.7623 30.0291 26.8723 28.5722 24.9908 27.1041C25.9236 26.4749 26.7198 25.6638 27.3317 24.7195C27.9435 23.7752 28.3584 22.717 28.5514 21.6085H18.8567C18.8539 19.2966 18.8567 16.9819 18.8567 14.6672Z" fill="#587DBD"/>
<path d="M2.96094 25.9876C4.90531 24.4876 6.84875 22.9801 8.79125 21.4651C9.54277 23.6706 10.9721 25.5823 12.875 26.927C14.0619 27.7658 15.4106 28.3482 16.835 28.637C18.2386 28.898 19.6783 28.898 21.0819 28.637C22.4814 28.4001 23.8159 27.8732 24.9997 27.0901C26.8813 28.5582 28.7712 30.0151 30.6528 31.4832C28.5938 33.3556 26.0837 34.661 23.3684 35.2717C20.3715 35.9762 17.2482 35.9424 14.2672 35.1732C11.9095 34.5437 9.70721 33.4339 7.79844 31.9135C5.77811 30.3095 4.128 28.2881 2.96094 25.9876Z" fill="#319F43"/>
</svg>
