<svg width="137" height="130" viewBox="0 0 137 130" fill="none" xmlns="http://www.w3.org/2000/svg">
<mask id="mask0_512_239" style="mask-type:alpha" maskUnits="userSpaceOnUse" x="0" y="0" width="137" height="130">
<rect width="137" height="130" fill="#D9D9D9"/>
</mask>
<g mask="url(#mask0_512_239)">
<g filter="url(#filter0_d_512_239)">
<mask id="path-2-inside-1_512_239" fill="white">
<path d="M103.787 55.4375C116.538 55.4375 127.259 66.1033 122.72 78.0191C121.271 81.8214 119.454 85.492 117.284 88.9762C111.016 99.0399 102.053 107.146 91.4119 112.374C80.7708 117.602 68.8775 119.744 57.081 118.556C45.2845 117.368 34.057 112.898 24.6721 105.653C15.2871 98.4076 8.12033 88.6775 3.98462 77.566C-0.151086 66.4546 -1.09018 54.4065 1.27386 42.7885C3.6379 31.1704 9.21046 20.4473 17.3594 11.8356C20.1807 8.85406 23.2717 6.16693 26.5835 3.80317C36.9621 -3.60443 49.9944 4.06649 53.2225 16.4021L56.633 29.435C57.9775 34.5727 54.5492 39.7153 50.899 43.5728V43.5728C48.6816 45.9162 47.1652 48.8341 46.5219 51.9955C45.8786 55.157 46.1342 58.4354 47.2595 61.459C48.3849 64.4826 50.3351 67.1303 52.8889 69.1017C55.4427 71.0732 58.4978 72.2896 61.7078 72.6129C64.9178 72.9361 68.1541 72.3534 71.0497 70.9307C73.9453 69.508 76.3843 67.3023 78.09 64.5639V64.5639C80.8977 60.056 85.0049 55.4375 90.3156 55.4375H103.787Z"/>
</mask>
<path d="M103.787 55.4375C116.538 55.4375 127.259 66.1033 122.72 78.0191C121.271 81.8214 119.454 85.492 117.284 88.9762C111.016 99.0399 102.053 107.146 91.4119 112.374C80.7708 117.602 68.8775 119.744 57.081 118.556C45.2845 117.368 34.057 112.898 24.6721 105.653C15.2871 98.4076 8.12033 88.6775 3.98462 77.566C-0.151086 66.4546 -1.09018 54.4065 1.27386 42.7885C3.6379 31.1704 9.21046 20.4473 17.3594 11.8356C20.1807 8.85406 23.2717 6.16693 26.5835 3.80317C36.9621 -3.60443 49.9944 4.06649 53.2225 16.4021L56.633 29.435C57.9775 34.5727 54.5492 39.7153 50.899 43.5728V43.5728C48.6816 45.9162 47.1652 48.8341 46.5219 51.9955C45.8786 55.157 46.1342 58.4354 47.2595 61.459C48.3849 64.4826 50.3351 67.1303 52.8889 69.1017C55.4427 71.0732 58.4978 72.2896 61.7078 72.6129C64.9178 72.9361 68.1541 72.3534 71.0497 70.9307C73.9453 69.508 76.3843 67.3023 78.09 64.5639V64.5639C80.8977 60.056 85.0049 55.4375 90.3156 55.4375H103.787Z" fill="#CBFF9C"/>
<path d="M103.787 55.4375C116.538 55.4375 127.259 66.1033 122.72 78.0191C121.271 81.8214 119.454 85.492 117.284 88.9762C111.016 99.0399 102.053 107.146 91.4119 112.374C80.7708 117.602 68.8775 119.744 57.081 118.556C45.2845 117.368 34.057 112.898 24.6721 105.653C15.2871 98.4076 8.12033 88.6775 3.98462 77.566C-0.151086 66.4546 -1.09018 54.4065 1.27386 42.7885C3.6379 31.1704 9.21046 20.4473 17.3594 11.8356C20.1807 8.85406 23.2717 6.16693 26.5835 3.80317C36.9621 -3.60443 49.9944 4.06649 53.2225 16.4021L56.633 29.435C57.9775 34.5727 54.5492 39.7153 50.899 43.5728V43.5728C48.6816 45.9162 47.1652 48.8341 46.5219 51.9955C45.8786 55.157 46.1342 58.4354 47.2595 61.459C48.3849 64.4826 50.3351 67.1303 52.8889 69.1017C55.4427 71.0732 58.4978 72.2896 61.7078 72.6129C64.9178 72.9361 68.1541 72.3534 71.0497 70.9307C73.9453 69.508 76.3843 67.3023 78.09 64.5639V64.5639C80.8977 60.056 85.0049 55.4375 90.3156 55.4375H103.787Z" stroke="#333333" stroke-width="4" mask="url(#path-2-inside-1_512_239)"/>
</g>
<path d="M77.54 50.36C75.92 50.36 74.41 50.1 73.01 49.58C71.63 49.04 70.43 48.28 69.41 47.3C68.39 46.32 67.59 45.17 67.01 43.85C66.45 42.53 66.17 41.08 66.17 39.5C66.17 37.92 66.45 36.47 67.01 35.15C67.59 33.83 68.39 32.68 69.41 31.7C70.45 30.72 71.66 29.97 73.04 29.45C74.42 28.91 75.93 28.64 77.57 28.64C79.39 28.64 81.03 28.96 82.49 29.6C83.97 30.22 85.21 31.14 86.21 32.36L83.09 35.24C82.37 34.42 81.57 33.81 80.69 33.41C79.81 32.99 78.85 32.78 77.81 32.78C76.83 32.78 75.93 32.94 75.11 33.26C74.29 33.58 73.58 34.04 72.98 34.64C72.38 35.24 71.91 35.95 71.57 36.77C71.25 37.59 71.09 38.5 71.09 39.5C71.09 40.5 71.25 41.41 71.57 42.23C71.91 43.05 72.38 43.76 72.98 44.36C73.58 44.96 74.29 45.42 75.11 45.74C75.93 46.06 76.83 46.22 77.81 46.22C78.85 46.22 79.81 46.02 80.69 45.62C81.57 45.2 82.37 44.57 83.09 43.73L86.21 46.61C85.21 47.83 83.97 48.76 82.49 49.4C81.03 50.04 79.38 50.36 77.54 50.36ZM89.162 50V27.74H93.842V50H89.162ZM98.1854 50V33.86H102.865V50H98.1854ZM100.525 31.61C99.6654 31.61 98.9654 31.36 98.4254 30.86C97.8854 30.36 97.6154 29.74 97.6154 29C97.6154 28.26 97.8854 27.64 98.4254 27.14C98.9654 26.64 99.6654 26.39 100.525 26.39C101.385 26.39 102.085 26.63 102.625 27.11C103.165 27.57 103.435 28.17 103.435 28.91C103.435 29.69 103.165 30.34 102.625 30.86C102.105 31.36 101.405 31.61 100.525 31.61ZM114.889 50.24C113.169 50.24 111.639 49.88 110.299 49.16C108.979 48.44 107.929 47.46 107.149 46.22C106.389 44.96 106.009 43.53 106.009 41.93C106.009 40.31 106.389 38.88 107.149 37.64C107.929 36.38 108.979 35.4 110.299 34.7C111.639 33.98 113.169 33.62 114.889 33.62C116.589 33.62 118.109 33.98 119.449 34.7C120.789 35.4 121.839 36.37 122.599 37.61C123.359 38.85 123.739 40.29 123.739 41.93C123.739 43.53 123.359 44.96 122.599 46.22C121.839 47.46 120.789 48.44 119.449 49.16C118.109 49.88 116.589 50.24 114.889 50.24ZM114.889 46.4C115.669 46.4 116.369 46.22 116.989 45.86C117.609 45.5 118.099 44.99 118.459 44.33C118.819 43.65 118.999 42.85 118.999 41.93C118.999 40.99 118.819 40.19 118.459 39.53C118.099 38.87 117.609 38.36 116.989 38C116.369 37.64 115.669 37.46 114.889 37.46C114.109 37.46 113.409 37.64 112.789 38C112.169 38.36 111.669 38.87 111.289 39.53C110.929 40.19 110.749 40.99 110.749 41.93C110.749 42.85 110.929 43.65 111.289 44.33C111.669 44.99 112.169 45.5 112.789 45.86C113.409 46.22 114.109 46.4 114.889 46.4ZM128.461 50.24C127.661 50.24 126.971 49.97 126.391 49.43C125.831 48.87 125.551 48.16 125.551 47.3C125.551 46.44 125.831 45.75 126.391 45.23C126.971 44.69 127.661 44.42 128.461 44.42C129.281 44.42 129.971 44.69 130.531 45.23C131.091 45.75 131.371 46.44 131.371 47.3C131.371 48.16 131.091 48.87 130.531 49.43C129.971 49.97 129.281 50.24 128.461 50.24Z" fill="#333333"/>
</g>
<defs>
<filter id="filter0_d_512_239" x="0" y="0.895508" width="129.781" height="123.979" filterUnits="userSpaceOnUse" color-interpolation-filters="sRGB">
<feFlood flood-opacity="0" result="BackgroundImageFix"/>
<feColorMatrix in="SourceAlpha" type="matrix" values="0 0 0 0 0 0 0 0 0 0 0 0 0 0 0 0 0 0 127 0" result="hardAlpha"/>
<feOffset dx="6" dy="6"/>
<feComposite in2="hardAlpha" operator="out"/>
<feColorMatrix type="matrix" values="0 0 0 0 0.2 0 0 0 0 0.2 0 0 0 0 0.2 0 0 0 1 0"/>
<feBlend mode="normal" in2="BackgroundImageFix" result="effect1_dropShadow_512_239"/>
<feBlend mode="normal" in="SourceGraphic" in2="effect1_dropShadow_512_239" result="shape"/>
</filter>
</defs>
</svg>
