<svg width="40" height="40" viewBox="0 0 40 40" fill="none" xmlns="http://www.w3.org/2000/svg">
<path fill-rule="evenodd" clip-rule="evenodd" d="M19.7289 36.6645L20.0006 36.6667C19.6327 36.6667 19.2648 36.6547 18.8977 36.6308C18.4433 36.601 17.9903 36.5528 17.5398 36.4863C17.0165 36.4088 16.4972 36.3064 15.9837 36.1794C15.4774 36.0541 14.9774 35.905 14.4852 35.7325L14.4825 35.7315C13.672 35.4472 12.8849 35.1004 12.1282 34.694C11.5912 34.4057 11.0704 34.0881 10.5682 33.7426C10.0035 33.3543 9.46316 32.9316 8.95031 32.477C8.77113 32.3182 8.59536 32.1556 8.42312 31.9892C5.28523 28.9583 3.33398 24.707 3.33398 20C3.33398 10.7953 10.7959 3.33337 20.0006 3.33337C22.1893 3.33336 24.3566 3.76445 26.3787 4.60202C28.4008 5.4396 30.2381 6.66725 31.7858 8.21489C33.3334 9.76253 34.5611 11.5999 35.3987 13.6219C36.2362 15.644 36.6673 17.8113 36.6673 20C36.6673 24.7072 34.7159 28.9586 31.578 31.9894C31.5779 31.9896 31.5779 31.9899 31.578 31.9903C30.7885 32.7523 29.9262 33.435 29.0034 34.0285L28.9905 34.0367C28.7813 34.1711 28.569 34.3007 28.3538 34.4255L28.3311 34.4388C27.9547 34.6563 27.5699 34.859 27.1777 35.0466C27.0241 35.1197 26.8696 35.1907 26.714 35.2594C26.5517 35.3307 26.3884 35.3996 26.224 35.466C26.0646 35.53 25.9043 35.5917 25.7431 35.651C25.5802 35.7107 25.4164 35.7679 25.2517 35.8227C25.0899 35.8762 24.9272 35.9274 24.7638 35.9761C24.5907 36.0276 24.4168 36.0763 24.2422 36.1222C24.0722 36.1667 23.9016 36.2086 23.7303 36.2478C23.5594 36.2868 23.3879 36.3231 23.2159 36.3568C22.5148 36.4939 21.8055 36.5856 21.0926 36.6315C20.9154 36.643 20.738 36.6516 20.5605 36.6575L20.5571 36.6576C20.2811 36.6667 20.005 36.669 19.7289 36.6645ZM21.6673 26.6667H18.334C15.6791 26.6667 13.3571 28.229 12.2897 30.5133L12.169 30.79L12.2734 30.8673C14.1731 32.2204 16.4427 33.088 18.9011 33.2887C18.9745 33.2947 19.048 33.3001 19.1217 33.3049L18.9113 33.2895C18.9829 33.2953 19.0546 33.3005 19.1266 33.3052L19.1217 33.3049C19.193 33.3095 19.2643 33.3136 19.3358 33.3171L19.1266 33.3052C19.2008 33.31 19.2752 33.3142 19.3498 33.3178L19.3358 33.3171C19.3894 33.3197 19.443 33.322 19.4966 33.324L20.0006 33.3334L20.2096 33.3318C20.2864 33.3306 20.3633 33.3288 20.4401 33.3263L20.2291 33.3314C20.3002 33.3303 20.3712 33.3285 20.442 33.3262L20.4401 33.3263C20.5115 33.324 20.5828 33.3211 20.654 33.3177L20.442 33.3262C20.5155 33.3237 20.5889 33.3208 20.6623 33.3172L20.654 33.3177C20.7282 33.314 20.8021 33.3099 20.8759 33.3052L20.6623 33.3172C20.7345 33.3137 20.8066 33.3096 20.8787 33.3049L20.8759 33.3051C20.9481 33.3004 21.0202 33.2952 21.092 33.2894L20.8786 33.3049C20.952 33.3001 21.0254 33.2948 21.0987 33.2888L21.092 33.2894C21.1618 33.2837 21.2315 33.2775 21.3009 33.2708L21.0987 33.2888C21.1716 33.2829 21.2443 33.2763 21.317 33.2692L21.3009 33.2708C23.6772 33.0408 25.8709 32.187 27.7165 30.8753L27.8306 30.79L27.7117 30.5136C26.691 28.3286 24.5221 26.8039 22.0117 26.6755L21.6673 26.6667ZM20.0006 6.66673C12.6369 6.66673 6.66734 12.6363 6.66734 20C6.66734 23.18 7.78055 26.1 9.63852 28.3914C11.3595 25.3702 14.6088 23.3334 18.334 23.3334H21.6673C25.3926 23.3334 28.642 25.3703 30.3627 28.3912C32.2207 26.1 33.334 23.18 33.334 20C33.334 12.6363 27.3645 6.66673 20.0006 6.66673ZM20.0006 8.33337C23.6826 8.33337 26.6673 11.3181 26.6673 15C26.6673 18.5703 23.8607 21.4852 20.3334 21.6586L20.0006 21.6667C16.3188 21.6667 13.334 18.682 13.334 15C13.334 11.4297 16.1406 8.51486 19.6679 8.3415L20.0006 8.33337ZM20.0006 11.6667C18.1597 11.6667 16.6673 13.1591 16.6673 15C16.6673 16.841 18.1597 18.3334 20.0006 18.3334C21.8416 18.3334 23.334 16.841 23.334 15C23.334 13.1591 21.8416 11.6667 20.0006 11.6667Z" fill="white"/>
</svg>
